<svg width="130" height="119" viewBox="0 0 130 119" fill="none" xmlns="http://www.w3.org/2000/svg">
<path d="M0.612305 118.423V105.993H58.775V36.5366C55.9746 35.6043 53.5511 34.1541 51.5047 32.1859C49.4582 30.2177 47.9503 27.887 46.9809 25.1937H26.4624L45.85 68.7009C45.85 73.8804 43.6419 78.2829 39.2259 81.9085C34.8098 85.5341 29.4782 87.3469 23.2311 87.3469C16.984 87.3469 11.6524 85.5341 7.23639 81.9085C2.82033 78.2829 0.612305 73.8804 0.612305 68.7009L19.9999 25.1937H7.07483V12.763H46.9809C48.2734 9.13743 50.5891 6.15926 53.9281 3.82852C57.2671 1.49777 61.0369 0.332397 65.2375 0.332397C69.4382 0.332397 73.208 1.49777 76.5469 3.82852C79.8859 6.15926 82.2016 9.13743 83.4941 12.763H123.4V25.1937H110.475L129.863 68.7009C129.863 73.8804 127.655 78.2829 123.239 81.9085C118.823 85.5341 113.491 87.3469 107.244 87.3469C100.997 87.3469 95.6652 85.5341 91.2492 81.9085C86.8331 78.2829 84.6251 73.8804 84.6251 68.7009L104.013 25.1937H83.4941C82.5248 27.887 81.0168 30.2177 78.9704 32.1859C76.9239 34.1541 74.5005 35.6043 71.7 36.5366V105.993H129.863V118.423H0.612305ZM95.1267 68.7009H119.361L107.244 41.6643L95.1267 68.7009ZM11.1139 68.7009H35.3484L23.2311 41.6643L11.1139 68.7009ZM65.2375 25.1937C67.0686 25.1937 68.6034 24.598 69.8421 23.4068C71.0807 22.2155 71.7 20.7394 71.7 18.9784C71.7 17.2174 71.0807 15.7412 69.8421 14.5499C68.6034 13.3587 67.0686 12.763 65.2375 12.763C63.4065 12.763 61.8716 13.3587 60.633 14.5499C59.3943 15.7412 58.775 17.2174 58.775 18.9784C58.775 20.7394 59.3943 22.2155 60.633 23.4068C61.8716 24.598 63.4065 25.1937 65.2375 25.1937Z" fill="#00661D"/>
</svg>
