<svg width="2367" height="2271" viewBox="0 0 2367 2271" fill="none" xmlns="http://www.w3.org/2000/svg">
<g filter="url(#filter0_ddddii_636_10)">
<path fill-rule="evenodd" clip-rule="evenodd" d="M1788.89 18L701.03 560.583L799.926 751.888L17 1127.9L120.841 1350.54L476.866 1177.38L447.197 2028.36L554.335 2251L1648.78 1729.86L1549.89 1533.6L2346 1132.85L2235.57 916.807L1882.84 1093.27L1897.67 238.991L1788.89 18ZM1119.69 631.498L1661.97 359.382L1648.78 1210.36L1151.01 1456.09L1246.61 1649.05L684.548 1919.51L714.217 1066.88L1215.29 827.751L1119.69 631.498Z" fill="#E8EEF6"/>
<path d="M1661.97 359.382L1119.69 631.498L1215.29 827.751L714.217 1066.88L684.548 1919.51L1246.61 1649.05L1151.01 1456.09L1648.78 1210.36L1661.97 359.382Z" fill="#E8EEF6"/>
<path fill-rule="evenodd" clip-rule="evenodd" d="M1788.89 18L701.03 560.583L799.926 751.888L17 1127.9L120.841 1350.54L476.866 1177.38L447.197 2028.36L554.335 2251L1648.78 1729.86L1549.89 1533.6L2346 1132.85L2235.57 916.807L1882.84 1093.27L1897.67 238.991L1788.89 18ZM1119.69 631.498L1661.97 359.382L1648.78 1210.36L1151.01 1456.09L1246.61 1649.05L684.548 1919.51L714.217 1066.88L1215.29 827.751L1119.69 631.498Z" stroke="#00661D" stroke-opacity="0.17" stroke-width="3"/>
<path d="M1661.97 359.382L1119.69 631.498L1215.29 827.751L714.217 1066.88L684.548 1919.51L1246.61 1649.05L1151.01 1456.09L1648.78 1210.36L1661.97 359.382Z" stroke="#00661D" stroke-opacity="0.17" stroke-width="3"/>
</g>
<defs>
<filter id="filter0_ddddii_636_10" x="0.0136719" y="0.984741" width="2366.01" height="2270.01" filterUnits="userSpaceOnUse" color-interpolation-filters="sRGB">
<feFlood flood-opacity="0" result="BackgroundImageFix"/>
<feColorMatrix in="SourceAlpha" type="matrix" values="0 0 0 0 0 0 0 0 0 0 0 0 0 0 0 0 0 0 127 0" result="hardAlpha"/>
<feOffset dx="5" dy="5"/>
<feGaussianBlur stdDeviation="6.5"/>
<feColorMatrix type="matrix" values="0 0 0 0 0.827451 0 0 0 0 0.85098 0 0 0 0 0.878431 0 0 0 0.9 0"/>
<feBlend mode="normal" in2="BackgroundImageFix" result="effect1_dropShadow_636_10"/>
<feColorMatrix in="SourceAlpha" type="matrix" values="0 0 0 0 0 0 0 0 0 0 0 0 0 0 0 0 0 0 127 0" result="hardAlpha"/>
<feOffset dx="-5" dy="-5"/>
<feGaussianBlur stdDeviation="5"/>
<feColorMatrix type="matrix" values="0 0 0 0 0.992157 0 0 0 0 1 0 0 0 0 1 0 0 0 0.9 0"/>
<feBlend mode="normal" in2="effect1_dropShadow_636_10" result="effect2_dropShadow_636_10"/>
<feColorMatrix in="SourceAlpha" type="matrix" values="0 0 0 0 0 0 0 0 0 0 0 0 0 0 0 0 0 0 127 0" result="hardAlpha"/>
<feOffset dx="5" dy="-5"/>
<feGaussianBlur stdDeviation="5"/>
<feColorMatrix type="matrix" values="0 0 0 0 0.827451 0 0 0 0 0.85098 0 0 0 0 0.878431 0 0 0 0.2 0"/>
<feBlend mode="normal" in2="effect2_dropShadow_636_10" result="effect3_dropShadow_636_10"/>
<feColorMatrix in="SourceAlpha" type="matrix" values="0 0 0 0 0 0 0 0 0 0 0 0 0 0 0 0 0 0 127 0" result="hardAlpha"/>
<feOffset dx="-5" dy="5"/>
<feGaussianBlur stdDeviation="5"/>
<feColorMatrix type="matrix" values="0 0 0 0 0.827451 0 0 0 0 0.85098 0 0 0 0 0.878431 0 0 0 0.2 0"/>
<feBlend mode="normal" in2="effect3_dropShadow_636_10" result="effect4_dropShadow_636_10"/>
<feBlend mode="normal" in="SourceGraphic" in2="effect4_dropShadow_636_10" result="shape"/>
<feColorMatrix in="SourceAlpha" type="matrix" values="0 0 0 0 0 0 0 0 0 0 0 0 0 0 0 0 0 0 127 0" result="hardAlpha"/>
<feOffset dx="-1" dy="-1"/>
<feGaussianBlur stdDeviation="1"/>
<feComposite in2="hardAlpha" operator="arithmetic" k2="-1" k3="1"/>
<feColorMatrix type="matrix" values="0 0 0 0 0.827451 0 0 0 0 0.85098 0 0 0 0 0.878431 0 0 0 0.5 0"/>
<feBlend mode="normal" in2="shape" result="effect5_innerShadow_636_10"/>
<feColorMatrix in="SourceAlpha" type="matrix" values="0 0 0 0 0 0 0 0 0 0 0 0 0 0 0 0 0 0 127 0" result="hardAlpha"/>
<feOffset dx="1" dy="1"/>
<feGaussianBlur stdDeviation="1"/>
<feComposite in2="hardAlpha" operator="arithmetic" k2="-1" k3="1"/>
<feColorMatrix type="matrix" values="0 0 0 0 0.992157 0 0 0 0 1 0 0 0 0 1 0 0 0 0.3 0"/>
<feBlend mode="normal" in2="effect5_innerShadow_636_10" result="effect6_innerShadow_636_10"/>
</filter>
</defs>
</svg>
